<svg width="48" height="48" viewBox="0 0 48 48" fill="none" xmlns="http://www.w3.org/2000/svg">
<path d="M26.6931 7.02253L26.68 14.5363L26.6667 22.0501L26.0485 20.3059L26.0474 20.3026L25.2486 37.0303C26.034 39.2484 26.4548 40.4324 26.4595 40.4371C26.4655 40.4434 26.9133 40.4704 27.4541 40.4972C29.0928 40.5785 31.1235 40.7526 32.6641 40.9442C33.0207 40.9885 33.3277 41.0112 33.3463 40.9945C33.3647 40.9781 33.3747 33.3276 33.3686 23.9935L33.3572 7.02253H30.0253H26.6931ZM14.6396 7V23.9883C14.6396 33.3319 14.6489 40.9857 14.66 40.9969C14.6712 41.0081 15.2498 40.9534 15.9459 40.8754C16.6418 40.7975 17.604 40.7005 18.0836 40.66C18.8193 40.5979 21.0158 40.4567 21.2701 40.4551C21.3441 40.4547 21.3488 40.0732 21.3596 33.2598L21.3709 26.0647L21.9023 27.5684L22.0904 28.0998L22.8889 11.3761L22.6145 10.6005C22.2046 9.44121 21.7944 8.28205 21.3839 7.12301L21.3398 7H17.9898H14.6396Z" fill="#B1060F"/>
<path d="M14.6396 7V16.536L21.3572 34.3555C21.358 33.9471 21.3588 33.7266 21.3596 33.2598L21.3709 26.0647L21.9023 27.5684C24.8608 35.9395 26.4501 40.4277 26.4595 40.4371C26.4655 40.4434 26.9133 40.4704 27.4541 40.4972C29.0928 40.5785 31.1235 40.7526 32.6641 40.9442C33.0207 40.9885 33.3277 41.0112 33.3463 40.9945C33.3588 40.9832 33.3672 37.2319 33.3694 31.94L26.6832 12.7173L26.68 14.5363L26.6667 22.0501L26.0485 20.3059C25.4445 18.6016 25.0412 17.4618 22.6145 10.6005C22.2046 9.44121 21.7944 8.28205 21.3839 7.12301L21.3398 7H17.9898H14.6396Z" fill="url(#paint0_radial_10_2835)"/>
<path d="M14.6396 7L21.3707 26.0733V26.0647L21.9021 27.5684C24.8606 35.9395 26.4499 40.4277 26.4593 40.4371C26.4653 40.4434 26.9131 40.4704 27.4539 40.4972C29.0926 40.5785 31.1233 40.7526 32.6639 40.9442C33.0188 40.9883 33.3239 41.0108 33.3455 40.9947L26.6663 22.0468V22.0501L26.0481 20.3059C25.4441 18.6016 25.0408 17.4618 22.6141 10.6005C21.9615 8.75539 21.4078 7.19078 21.3835 7.12301L21.3394 7H17.9896H14.6396Z" fill="#E50914"/>
<path d="M26.6931 7.02253L26.68 14.5363L26.6667 22.0501L26.0485 20.3059L26.0474 20.3026L25.2486 37.0303C26.034 39.2484 26.4548 40.4324 26.4595 40.4371C26.4655 40.4434 26.9133 40.4704 27.4541 40.4972C29.0928 40.5785 31.1235 40.7526 32.6641 40.9442C33.0207 40.9885 33.3277 41.0112 33.3463 40.9945C33.3647 40.9781 33.3747 33.3276 33.3686 23.9935L33.3572 7.02253H30.0253H26.6931ZM14.6396 7V23.9883C14.6396 33.3319 14.6489 40.9857 14.66 40.9969C14.6712 41.0081 15.2498 40.9534 15.9459 40.8754C16.6418 40.7975 17.604 40.7005 18.0836 40.66C18.8193 40.5979 21.0158 40.4567 21.2701 40.4551C21.3441 40.4547 21.3488 40.0732 21.3596 33.2598L21.3709 26.0647L21.9023 27.5684L22.0904 28.0998L22.8889 11.3761L22.6145 10.6005C22.2046 9.44121 21.7944 8.28205 21.3839 7.12301L21.3398 7H17.9898H14.6396Z" fill="#B1060F"/>
<path d="M14.6396 7V16.536L21.3572 34.3555C21.358 33.9471 21.3588 33.7266 21.3596 33.2598L21.3709 26.0647L21.9023 27.5684C24.8608 35.9395 26.4501 40.4277 26.4595 40.4371C26.4655 40.4434 26.9133 40.4704 27.4541 40.4972C29.0928 40.5785 31.1235 40.7526 32.6641 40.9442C33.0207 40.9885 33.3277 41.0112 33.3463 40.9945C33.3588 40.9832 33.3672 37.2319 33.3694 31.94L26.6832 12.7173L26.68 14.5363L26.6667 22.0501L26.0485 20.3059C25.4445 18.6016 25.0412 17.4618 22.6145 10.6005C22.2046 9.44121 21.7944 8.28205 21.3839 7.12301L21.3398 7H17.9898H14.6396Z" fill="url(#paint1_radial_10_2835)"/>
<path d="M14.6396 7L21.3707 26.0733V26.0647L21.9021 27.5684C24.8606 35.9395 26.4499 40.4277 26.4593 40.4371C26.4653 40.4434 26.9131 40.4704 27.4539 40.4972C29.0926 40.5785 31.1233 40.7526 32.6639 40.9442C33.0188 40.9883 33.3239 41.0108 33.3455 40.9947L26.6663 22.0468V22.0501L26.0481 20.3059C25.4441 18.6016 25.0408 17.4618 22.6141 10.6005C21.9615 8.75539 21.4078 7.19078 21.3835 7.12301L21.3394 7H17.9896H14.6396Z" fill="#E50914"/>
<defs>
<radialGradient id="paint0_radial_10_2835" cx="0" cy="0" r="1" gradientUnits="userSpaceOnUse" gradientTransform="translate(920.036 929.037) scale(1319.29 1319.3)">
<stop/>
<stop offset="1" stop-opacity="0"/>
</radialGradient>
<radialGradient id="paint1_radial_10_2835" cx="0" cy="0" r="1" gradientUnits="userSpaceOnUse" gradientTransform="translate(920.036 929.037) scale(1319.29 1319.3)">
<stop/>
<stop offset="1" stop-opacity="0"/>
</radialGradient>
</defs>
</svg>
